<?xml version="1.0" encoding="UTF-8" standalone="no"?>
<!DOCTYPE svg PUBLIC "-//W3C//DTD SVG 1.1//EN"
 "http://www.w3.org/Graphics/SVG/1.1/DTD/svg11.dtd">
<!-- Generated by graphviz version 2.47.0 (20210316.0004)
 -->
<!-- Title: dependencies Pages: 1 -->
<svg width="793pt" height="211pt"
 viewBox="0.00 0.00 793.00 211.00" xmlns="http://www.w3.org/2000/svg" xmlns:xlink="http://www.w3.org/1999/xlink">
<g id="graph0" class="graph" transform="scale(1 1) rotate(0) translate(4 207)">
<title>dependencies</title>
<polygon fill="white" stroke="transparent" points="-4,4 -4,-207 789,-207 789,4 -4,4"/>
<text text-anchor="start" x="371.51" y="-42.4" font-family="Times-12" font-weight="bold" font-size="14.00">Legend</text>
<polygon fill="#ffffb3" stroke="transparent" points="158.5,-10 158.5,-30 178.5,-30 178.5,-10 158.5,-10"/>
<text text-anchor="start" x="182.13" y="-15.4" font-family="Times-12" font-size="14.00"> &#160;Declarations</text>
<polygon fill="#8dd3c7" stroke="transparent" points="271.5,-10 271.5,-30 291.5,-30 291.5,-10 271.5,-10"/>
<text text-anchor="start" x="295.23" y="-15.4" font-family="Times-12" font-size="14.00"> &#160;Module</text>
<polygon fill="#80b1d3" stroke="transparent" points="357.5,-10 357.5,-30 377.5,-30 377.5,-10 357.5,-10"/>
<text text-anchor="start" x="381.28" y="-15.4" font-family="Times-12" font-size="14.00"> &#160;Bootstrap</text>
<polygon fill="#fdb462" stroke="transparent" points="454.5,-10 454.5,-30 474.5,-30 474.5,-10 454.5,-10"/>
<text text-anchor="start" x="478.17" y="-15.4" font-family="Times-12" font-size="14.00"> &#160;Providers</text>
<polygon fill="#fb8072" stroke="transparent" points="550.5,-10 550.5,-30 570.5,-30 570.5,-10 550.5,-10"/>
<text text-anchor="start" x="574.23" y="-15.4" font-family="Times-12" font-size="14.00"> &#160;Exports</text>
<g id="clust1" class="cluster">
<title>cluster_AppModule</title>
<polygon fill="none" stroke="black" stroke-dasharray="1,5" points="8,-70 8,-195 777,-195 777,-70 8,-70"/>
</g>
<g id="clust6" class="cluster">
<title>cluster_AppModule_providers</title>
<polygon fill="none" stroke="black" points="639,-78 639,-130 769,-130 769,-78 639,-78"/>
</g>
<g id="clust3" class="cluster">
<title>cluster_AppModule_imports</title>
<polygon fill="none" stroke="black" points="16,-78 16,-130 631,-130 631,-78 16,-78"/>
</g>
<!-- EnrrollmentModule -->
<g id="node1" class="node">
<title>EnrrollmentModule</title>
<polygon fill="#8dd3c7" stroke="black" points="622.7,-122 619.7,-126 598.7,-126 595.7,-122 495.3,-122 495.3,-86 622.7,-86 622.7,-122"/>
<text text-anchor="middle" x="559" y="-99.8" font-family="Times,serif" font-size="14.00">EnrrollmentModule</text>
</g>
<!-- AppModule -->
<g id="node6" class="node">
<title>AppModule</title>
<polygon fill="#8dd3c7" stroke="black" points="409.66,-187 406.66,-191 385.66,-191 382.66,-187 326.34,-187 326.34,-151 409.66,-151 409.66,-187"/>
<text text-anchor="middle" x="368" y="-164.8" font-family="Times,serif" font-size="14.00">AppModule</text>
</g>
<!-- EnrrollmentModule&#45;&gt;AppModule -->
<g id="edge1" class="edge">
<title>EnrrollmentModule&#45;&gt;AppModule</title>
<path fill="none" stroke="black" d="M559,-122.02C559,-139.37 559,-163 559,-163 559,-163 419.92,-163 419.92,-163"/>
<polygon fill="black" stroke="black" points="419.92,-159.5 409.92,-163 419.92,-166.5 419.92,-159.5"/>
</g>
<!-- FacultyModule -->
<g id="node2" class="node">
<title>FacultyModule</title>
<polygon fill="#8dd3c7" stroke="black" points="477.54,-122 474.54,-126 453.54,-126 450.54,-122 376.46,-122 376.46,-86 477.54,-86 477.54,-122"/>
<text text-anchor="middle" x="427" y="-99.8" font-family="Times,serif" font-size="14.00">FacultyModule</text>
</g>
<!-- FacultyModule&#45;&gt;AppModule -->
<g id="edge2" class="edge">
<title>FacultyModule&#45;&gt;AppModule</title>
<path fill="none" stroke="black" d="M393.03,-122.11C393.03,-122.11 393.03,-140.99 393.03,-140.99"/>
<polygon fill="black" stroke="black" points="389.53,-140.99 393.03,-150.99 396.53,-140.99 389.53,-140.99"/>
</g>
<!-- PeopleModule -->
<g id="node3" class="node">
<title>PeopleModule</title>
<polygon fill="#8dd3c7" stroke="black" points="357.65,-122 354.65,-126 333.65,-126 330.65,-122 260.35,-122 260.35,-86 357.65,-86 357.65,-122"/>
<text text-anchor="middle" x="309" y="-99.8" font-family="Times,serif" font-size="14.00">PeopleModule</text>
</g>
<!-- PeopleModule&#45;&gt;AppModule -->
<g id="edge3" class="edge">
<title>PeopleModule&#45;&gt;AppModule</title>
<path fill="none" stroke="black" d="M342,-122.11C342,-122.11 342,-140.99 342,-140.99"/>
<polygon fill="black" stroke="black" points="338.5,-140.99 342,-150.99 345.5,-140.99 338.5,-140.99"/>
</g>
<!-- SchoolModule -->
<g id="node4" class="node">
<title>SchoolModule</title>
<polygon fill="#8dd3c7" stroke="black" points="242.44,-122 239.44,-126 218.44,-126 215.44,-122 143.56,-122 143.56,-86 242.44,-86 242.44,-122"/>
<text text-anchor="middle" x="193" y="-99.8" font-family="Times,serif" font-size="14.00">SchoolModule</text>
</g>
<!-- SchoolModule&#45;&gt;AppModule -->
<g id="edge4" class="edge">
<title>SchoolModule&#45;&gt;AppModule</title>
<path fill="none" stroke="black" d="M193,-122.02C193,-139.37 193,-163 193,-163 193,-163 316.08,-163 316.08,-163"/>
<polygon fill="black" stroke="black" points="316.08,-166.5 326.08,-163 316.08,-159.5 316.08,-166.5"/>
</g>
<!-- SectionModule -->
<g id="node5" class="node">
<title>SectionModule</title>
<polygon fill="#8dd3c7" stroke="black" points="125.54,-122 122.54,-126 101.54,-126 98.54,-122 24.46,-122 24.46,-86 125.54,-86 125.54,-122"/>
<text text-anchor="middle" x="75" y="-99.8" font-family="Times,serif" font-size="14.00">SectionModule</text>
</g>
<!-- SectionModule&#45;&gt;AppModule -->
<g id="edge5" class="edge">
<title>SectionModule&#45;&gt;AppModule</title>
<path fill="none" stroke="black" d="M75,-122.28C75,-143.32 75,-175 75,-175 75,-175 316.33,-175 316.33,-175"/>
<polygon fill="black" stroke="black" points="316.33,-178.5 326.33,-175 316.33,-171.5 316.33,-178.5"/>
</g>
<!-- AppService -->
<g id="node7" class="node">
<title>AppService</title>
<ellipse fill="#fdb462" stroke="black" cx="704" cy="-104" rx="56.74" ry="18"/>
<text text-anchor="middle" x="704" y="-99.8" font-family="Times,serif" font-size="14.00">AppService</text>
</g>
<!-- AppService&#45;&gt;AppModule -->
<g id="edge6" class="edge">
<title>AppService&#45;&gt;AppModule</title>
<path fill="none" stroke="black" d="M704,-122.28C704,-143.32 704,-175 704,-175 704,-175 419.88,-175 419.88,-175"/>
<polygon fill="black" stroke="black" points="419.88,-171.5 409.88,-175 419.88,-178.5 419.88,-171.5"/>
</g>
</g>
</svg>
