<?xml version="1.0" encoding="UTF-8" standalone="no"?>
<!DOCTYPE svg PUBLIC "-//W3C//DTD SVG 1.1//EN"
 "http://www.w3.org/Graphics/SVG/1.1/DTD/svg11.dtd">
<!-- Generated by graphviz version 2.47.0 (20210316.0004)
 -->
<!-- Title: dependencies Pages: 1 -->
<svg width="932pt" height="287pt"
 viewBox="0.00 0.00 932.00 287.00" xmlns="http://www.w3.org/2000/svg" xmlns:xlink="http://www.w3.org/1999/xlink">
<g id="graph0" class="graph" transform="scale(1 1) rotate(0) translate(4 283)">
<title>dependencies</title>
<polygon fill="white" stroke="transparent" points="-4,4 -4,-283 928,-283 928,4 -4,4"/>
<text text-anchor="start" x="441.01" y="-42.4" font-family="Times-12" font-weight="bold" font-size="14.00">Legend</text>
<polygon fill="#ffffb3" stroke="transparent" points="228,-10 228,-30 248,-30 248,-10 228,-10"/>
<text text-anchor="start" x="251.63" y="-15.4" font-family="Times-12" font-size="14.00"> &#160;Declarations</text>
<polygon fill="#8dd3c7" stroke="transparent" points="341,-10 341,-30 361,-30 361,-10 341,-10"/>
<text text-anchor="start" x="364.73" y="-15.4" font-family="Times-12" font-size="14.00"> &#160;Module</text>
<polygon fill="#80b1d3" stroke="transparent" points="427,-10 427,-30 447,-30 447,-10 427,-10"/>
<text text-anchor="start" x="450.78" y="-15.4" font-family="Times-12" font-size="14.00"> &#160;Bootstrap</text>
<polygon fill="#fdb462" stroke="transparent" points="524,-10 524,-30 544,-30 544,-10 524,-10"/>
<text text-anchor="start" x="547.67" y="-15.4" font-family="Times-12" font-size="14.00"> &#160;Providers</text>
<polygon fill="#fb8072" stroke="transparent" points="620,-10 620,-30 640,-30 640,-10 620,-10"/>
<text text-anchor="start" x="643.73" y="-15.4" font-family="Times-12" font-size="14.00"> &#160;Exports</text>
<g id="clust1" class="cluster">
<title>cluster_AppModule</title>
<polygon fill="none" stroke="black" stroke-dasharray="1,5" points="14,-146 14,-271 783,-271 783,-146 14,-146"/>
</g>
<g id="clust3" class="cluster">
<title>cluster_AppModule_imports</title>
<polygon fill="none" stroke="black" points="160,-154 160,-206 775,-206 775,-154 160,-154"/>
</g>
<g id="clust6" class="cluster">
<title>cluster_AppModule_providers</title>
<polygon fill="none" stroke="black" points="22,-154 22,-206 152,-206 152,-154 22,-154"/>
</g>
<g id="clust13" class="cluster">
<title>cluster_EnrrollmentModule</title>
<polygon fill="none" stroke="black" stroke-dasharray="1,5" points="8,-70 8,-138 214,-138 214,-70 8,-70"/>
</g>
<g id="clust18" class="cluster">
<title>cluster_EnrrollmentModule_providers</title>
<polygon fill="none" stroke="black" points="16,-78 16,-130 206,-130 206,-78 16,-78"/>
</g>
<g id="clust19" class="cluster">
<title>cluster_FacultyModule</title>
<polygon fill="none" stroke="black" stroke-dasharray="1,5" points="222,-70 222,-138 392,-138 392,-70 222,-70"/>
</g>
<g id="clust24" class="cluster">
<title>cluster_FacultyModule_providers</title>
<polygon fill="none" stroke="black" points="230,-78 230,-130 384,-130 384,-78 230,-78"/>
</g>
<g id="clust25" class="cluster">
<title>cluster_PeopleModule</title>
<polygon fill="none" stroke="black" stroke-dasharray="1,5" points="400,-70 400,-138 564,-138 564,-70 400,-70"/>
</g>
<g id="clust30" class="cluster">
<title>cluster_PeopleModule_providers</title>
<polygon fill="none" stroke="black" points="408,-78 408,-130 556,-130 556,-78 408,-78"/>
</g>
<g id="clust31" class="cluster">
<title>cluster_SchoolModule</title>
<polygon fill="none" stroke="black" stroke-dasharray="1,5" points="572,-70 572,-138 738,-138 738,-70 572,-70"/>
</g>
<g id="clust36" class="cluster">
<title>cluster_SchoolModule_providers</title>
<polygon fill="none" stroke="black" points="580,-78 580,-130 730,-130 730,-78 580,-78"/>
</g>
<g id="clust37" class="cluster">
<title>cluster_SectionModule</title>
<polygon fill="none" stroke="black" stroke-dasharray="1,5" points="746,-70 746,-138 916,-138 916,-70 746,-70"/>
</g>
<g id="clust42" class="cluster">
<title>cluster_SectionModule_providers</title>
<polygon fill="none" stroke="black" points="754,-78 754,-130 908,-130 908,-78 754,-78"/>
</g>
<!-- EnrrollmentModule -->
<g id="node1" class="node">
<title>EnrrollmentModule</title>
<polygon fill="#8dd3c7" stroke="black" points="295.7,-198 292.7,-202 271.7,-202 268.7,-198 168.3,-198 168.3,-162 295.7,-162 295.7,-198"/>
<text text-anchor="middle" x="232" y="-175.8" font-family="Times,serif" font-size="14.00">EnrrollmentModule</text>
</g>
<!-- AppModule -->
<g id="node6" class="node">
<title>AppModule</title>
<polygon fill="#8dd3c7" stroke="black" points="464.66,-263 461.66,-267 440.66,-267 437.66,-263 381.34,-263 381.34,-227 464.66,-227 464.66,-263"/>
<text text-anchor="middle" x="423" y="-240.8" font-family="Times,serif" font-size="14.00">AppModule</text>
</g>
<!-- EnrrollmentModule&#45;&gt;AppModule -->
<g id="edge1" class="edge">
<title>EnrrollmentModule&#45;&gt;AppModule</title>
<path fill="none" stroke="black" d="M232,-198.02C232,-215.37 232,-239 232,-239 232,-239 371.08,-239 371.08,-239"/>
<polygon fill="black" stroke="black" points="371.08,-242.5 381.08,-239 371.08,-235.5 371.08,-242.5"/>
</g>
<!-- FacultyModule -->
<g id="node2" class="node">
<title>FacultyModule</title>
<polygon fill="#8dd3c7" stroke="black" points="414.54,-198 411.54,-202 390.54,-202 387.54,-198 313.46,-198 313.46,-162 414.54,-162 414.54,-198"/>
<text text-anchor="middle" x="364" y="-175.8" font-family="Times,serif" font-size="14.00">FacultyModule</text>
</g>
<!-- FacultyModule&#45;&gt;AppModule -->
<g id="edge2" class="edge">
<title>FacultyModule&#45;&gt;AppModule</title>
<path fill="none" stroke="black" d="M397.97,-198.11C397.97,-198.11 397.97,-216.99 397.97,-216.99"/>
<polygon fill="black" stroke="black" points="394.47,-216.99 397.97,-226.99 401.47,-216.99 394.47,-216.99"/>
</g>
<!-- PeopleModule -->
<g id="node3" class="node">
<title>PeopleModule</title>
<polygon fill="#8dd3c7" stroke="black" points="530.65,-198 527.65,-202 506.65,-202 503.65,-198 433.35,-198 433.35,-162 530.65,-162 530.65,-198"/>
<text text-anchor="middle" x="482" y="-175.8" font-family="Times,serif" font-size="14.00">PeopleModule</text>
</g>
<!-- PeopleModule&#45;&gt;AppModule -->
<g id="edge3" class="edge">
<title>PeopleModule&#45;&gt;AppModule</title>
<path fill="none" stroke="black" d="M449,-198.11C449,-198.11 449,-216.99 449,-216.99"/>
<polygon fill="black" stroke="black" points="445.5,-216.99 449,-226.99 452.5,-216.99 445.5,-216.99"/>
</g>
<!-- SchoolModule -->
<g id="node4" class="node">
<title>SchoolModule</title>
<polygon fill="#8dd3c7" stroke="black" points="647.44,-198 644.44,-202 623.44,-202 620.44,-198 548.56,-198 548.56,-162 647.44,-162 647.44,-198"/>
<text text-anchor="middle" x="598" y="-175.8" font-family="Times,serif" font-size="14.00">SchoolModule</text>
</g>
<!-- SchoolModule&#45;&gt;AppModule -->
<g id="edge4" class="edge">
<title>SchoolModule&#45;&gt;AppModule</title>
<path fill="none" stroke="black" d="M598,-198.02C598,-215.37 598,-239 598,-239 598,-239 474.92,-239 474.92,-239"/>
<polygon fill="black" stroke="black" points="474.92,-235.5 464.92,-239 474.92,-242.5 474.92,-235.5"/>
</g>
<!-- SectionModule -->
<g id="node5" class="node">
<title>SectionModule</title>
<polygon fill="#8dd3c7" stroke="black" points="766.54,-198 763.54,-202 742.54,-202 739.54,-198 665.46,-198 665.46,-162 766.54,-162 766.54,-198"/>
<text text-anchor="middle" x="716" y="-175.8" font-family="Times,serif" font-size="14.00">SectionModule</text>
</g>
<!-- SectionModule&#45;&gt;AppModule -->
<g id="edge5" class="edge">
<title>SectionModule&#45;&gt;AppModule</title>
<path fill="none" stroke="black" d="M716,-198.28C716,-219.32 716,-251 716,-251 716,-251 474.67,-251 474.67,-251"/>
<polygon fill="black" stroke="black" points="474.67,-247.5 464.67,-251 474.67,-254.5 474.67,-247.5"/>
</g>
<!-- AppService -->
<g id="node7" class="node">
<title>AppService</title>
<ellipse fill="#fdb462" stroke="black" cx="87" cy="-180" rx="56.74" ry="18"/>
<text text-anchor="middle" x="87" y="-175.8" font-family="Times,serif" font-size="14.00">AppService</text>
</g>
<!-- AppService&#45;&gt;AppModule -->
<g id="edge6" class="edge">
<title>AppService&#45;&gt;AppModule</title>
<path fill="none" stroke="black" d="M87,-198.28C87,-219.32 87,-251 87,-251 87,-251 371.12,-251 371.12,-251"/>
<polygon fill="black" stroke="black" points="371.12,-254.5 381.12,-251 371.12,-247.5 371.12,-254.5"/>
</g>
<!-- EnrrollmentService -->
<g id="node8" class="node">
<title>EnrrollmentService</title>
<ellipse fill="#fdb462" stroke="black" cx="111" cy="-104" rx="86.81" ry="18"/>
<text text-anchor="middle" x="111" y="-99.8" font-family="Times,serif" font-size="14.00">EnrrollmentService</text>
</g>
<!-- EnrrollmentService&#45;&gt;EnrrollmentModule -->
<g id="edge7" class="edge">
<title>EnrrollmentService&#45;&gt;EnrrollmentModule</title>
<path fill="none" stroke="black" d="M183.03,-114.25C183.03,-114.25 183.03,-151.77 183.03,-151.77"/>
<polygon fill="black" stroke="black" points="179.53,-151.77 183.03,-161.77 186.53,-151.77 179.53,-151.77"/>
</g>
<!-- FacultyService -->
<g id="node9" class="node">
<title>FacultyService</title>
<ellipse fill="#fdb462" stroke="black" cx="307" cy="-104" rx="68.92" ry="18"/>
<text text-anchor="middle" x="307" y="-99.8" font-family="Times,serif" font-size="14.00">FacultyService</text>
</g>
<!-- FacultyService&#45;&gt;FacultyModule -->
<g id="edge8" class="edge">
<title>FacultyService&#45;&gt;FacultyModule</title>
<path fill="none" stroke="black" d="M344.59,-119.38C344.59,-119.38 344.59,-151.97 344.59,-151.97"/>
<polygon fill="black" stroke="black" points="341.09,-151.97 344.59,-161.97 348.09,-151.97 341.09,-151.97"/>
</g>
<!-- PeopleService -->
<g id="node10" class="node">
<title>PeopleService</title>
<ellipse fill="#fdb462" stroke="black" cx="482" cy="-104" rx="66.05" ry="18"/>
<text text-anchor="middle" x="482" y="-99.8" font-family="Times,serif" font-size="14.00">PeopleService</text>
</g>
<!-- PeopleService&#45;&gt;PeopleModule -->
<g id="edge9" class="edge">
<title>PeopleService&#45;&gt;PeopleModule</title>
<path fill="none" stroke="black" d="M482,-122.01C482,-122.01 482,-151.85 482,-151.85"/>
<polygon fill="black" stroke="black" points="478.5,-151.85 482,-161.85 485.5,-151.85 478.5,-151.85"/>
</g>
<!-- SchoolService -->
<g id="node11" class="node">
<title>SchoolService</title>
<ellipse fill="#fdb462" stroke="black" cx="655" cy="-104" rx="66.63" ry="18"/>
<text text-anchor="middle" x="655" y="-99.8" font-family="Times,serif" font-size="14.00">SchoolService</text>
</g>
<!-- SchoolService&#45;&gt;SchoolModule -->
<g id="edge10" class="edge">
<title>SchoolService&#45;&gt;SchoolModule</title>
<path fill="none" stroke="black" d="M617.7,-119.02C617.7,-119.02 617.7,-151.8 617.7,-151.8"/>
<polygon fill="black" stroke="black" points="614.2,-151.8 617.7,-161.8 621.2,-151.8 614.2,-151.8"/>
</g>
<!-- SectionService -->
<g id="node12" class="node">
<title>SectionService</title>
<ellipse fill="#fdb462" stroke="black" cx="831" cy="-104" rx="68.92" ry="18"/>
<text text-anchor="middle" x="831" y="-99.8" font-family="Times,serif" font-size="14.00">SectionService</text>
</g>
<!-- SectionService&#45;&gt;SectionModule -->
<g id="edge11" class="edge">
<title>SectionService&#45;&gt;SectionModule</title>
<path fill="none" stroke="black" d="M761.7,-104C750.2,-104 741.93,-104 741.93,-104 741.93,-104 741.93,-151.99 741.93,-151.99"/>
<polygon fill="black" stroke="black" points="738.43,-151.99 741.93,-161.99 745.43,-151.99 738.43,-151.99"/>
</g>
</g>
</svg>
